<svg xmlns="http://www.w3.org/2000/svg" xml:space="preserve" id="svg1" width="3500" height="1440" version="1.1" viewBox="0 0 926 381"><defs id="defs1"><style>@keyframes dash{to{stroke-dashoffset:0}}@keyframes reveal{to{opacity:1;width:100%}}</style></defs><g id="banner"><path id="background" fill="#080f0f" d="M0 539h926v381H0z" style="shape-inside:url(#rect223);white-space:pre" transform="matrix(1 0 0 -1 0 920)"/><g id="icons" fill="none" stroke="#6ccff6" stroke-linecap="round" transform="translate(326 -1)"><path stroke-dasharray="1000" stroke-dashoffset="1000" stroke-linejoin="round" stroke-width="11.5" d="M110 211h0c-22 0-40-24-40-52 0-8 6-15 14-16a186 186 0 0 1 26-2h0m0 0c-22 0-43 4-63 11 1 17 4 32 9 47m54-58a17 17 0 0 1-17-18m17-16-22-2c-3-1-6-3-6-6a29 29 0 0 1 3-17m25 25a17 17 0 0 0-17 16m-8-41a46 46 0 0 1-9-8l4-14m5 22a29 29 0 0 1 25-16M56 89a185 185 0 0 0-3 26c13 4 26 7 40 8" style="animation:dash 4s ease-in-out forwards"/><path stroke-dasharray="1000" stroke-dashoffset="1000" stroke-width="7.9" d="M135 47v177" style="animation:dash 4s ease-in-out forwards"/><g id="fingerprint" stroke-linejoin="round" stroke-width="12.2"><path stroke-dasharray="1000" stroke-dashoffset="1000" d="M183 163a152 152 0 0 1-21 43" style="animation:dash 3.25s .5s ease-in-out forwards" transform="translate(8 3)"/><path stroke-dasharray="1000" stroke-dashoffset="1000" d="M158 121a122 122 0 0 1-5 33" style="animation:dash 3.5s .5s ease-in-out forwards" transform="translate(8 3)"/><path stroke-dasharray="1000" stroke-dashoffset="1000" d="M153 91a31 31 0 0 1 35 30v13" style="animation:dash 3.75s .25s ease-in-out forwards" transform="translate(8 3)"/><path stroke-dasharray="1000" stroke-dashoffset="1000" d="M153 60a61 61 0 0 1 66 61c0 24-4 46-13 67" style="animation:dash 4s ease-in-out forwards" transform="translate(8 3)"/></g></g><g id="text" fill="#6ccff6" stroke-linecap="round" stroke-width="7.9"><path d="M573-627c6 4 14 6 22 6 6 0 11-2 16-5 5-2 9-6 11-11l1 14h10v-46h-37v13h22c-1 6-3 11-7 15s-9 6-15 6c-8 0-14-3-18-9-5-6-7-13-7-23s2-17 7-23c4-6 10-9 18-9 11 0 18 6 20 17l17-1c-2-9-6-17-12-22s-15-8-25-8a38 38 0 0 0-36 22c-4 7-5 15-5 24s1 17 5 24c3 7 7 12 13 16z" opacity="0" style="width:0;animation:reveal 1s .5s ease-in-out forwards" transform="translate(-28 960)"/><path d="m495-711-32 88h17l7-21h35l7 21h17l-32-88zm22 53h-25l13-37z" opacity="0" style="animation:reveal 1s .5s ease-in-out forwards" transform="translate(-28 960)"/><path d="m350-711 23 88h18l16-60 15 60h18l23-88h-17l-16 65-16-65h-15l-16 65-16-65z" opacity="0" style="width:0;animation:reveal 1s .5s ease-in-out forwards" transform="translate(-28 960)"/></g></g></svg>
